<?xml version="1.0" encoding="UTF-8"?>
<svg id="Layer_2" data-name="Layer 2" xmlns="http://www.w3.org/2000/svg" viewBox="0 0 214 214">
  <defs>
    <style>
      .cls-1 {
        fill: #040404;
      }

      .cls-1, .cls-2, .cls-3 {
        stroke-width: 0px;
      }

      .cls-2 {
        fill: #090909;
      }

      .cls-3 {
        fill: #fdfdfd;
      }
    </style>
  </defs>
  <g id="Layer_1-2" data-name="Layer 1">
    <circle class="cls-3" cx="107" cy="107" r="107"/>
    <g>
      <path class="cls-2" d="m141.08,41.51c-8.35-3.95-16.45-6.79-25.08-7.88-8.67-1.09-17.25-.69-25.81,1.09-2.62.55-3.5,1.56-3.5,4.25.08,45.29.07,90.58.01,135.88,0,2.56.61,3.79,3.37,4.37,10.76,2.24,21.44,2.3,32.2.02,2.61-.55,3.6-1.52,3.58-4.24-.1-18.98-.09-37.97-.01-56.95.01-2.56-.75-3.49-3.38-3.44-6.82.15-13.65-.05-20.48.09-2.6.05-3.35-.78-3.45-3.4-.44-12.06-.53-12.05,11.69-12.05,8.99,0,17.99.11,26.97-.08,3.02-.06,3.97.75,3.96,3.87-.12,27.47-.11,54.95,0,82.42.01,2.78-.8,4.14-3.43,5.09-21.04,7.59-42.01,7.53-63.05-.02-2.64-.95-3.4-2.34-3.4-5.11.09-52.29.1-104.57,0-156.86,0-3.08,1.08-4.38,3.82-5.35,20.72-7.31,41.39-7.32,62.13-.06,2.98,1.04,4.18,2.54,3.93,5.76-.31,3.94-.07,7.92-.07,12.57Z"/>
      <path class="cls-1" d="m154.86,182.01V30.87c20.21,7.31,41.11,41.93,42.08,69.91,1.2,34.59-13.09,61.18-42.08,81.23Zm15.19-36.76c16.7-23.72,14.48-60.29,0-77.93v77.93Z"/>
      <path class="cls-2" d="m57.59,31.93c.14.53.21.69.23.85.93,9.2-1.21,16.33-8.18,23.81-21.94,23.55-24.99,58.21-9.33,86.24,1.25,2.23,2.77,4.31,4.23,6.56,1.37-1.36,1.08-2.63.93-3.64-.66-4.42,1.04-5.76,5.47-5.48,7.86.5,6.83-1.16,6.88,6.91.07,10.79.02,21.58.02,33.64-24.39-16.91-38.04-39.13-40.56-67.74-2.86-32.56,15.75-69.64,40.31-81.16Z"/>
      <path class="cls-3" d="m170.05,145.25v-77.93c14.48,17.64,16.7,54.2,0,77.93Z"/>
    </g>
  </g>
</svg>